<?xml version="1.0" standalone="no"?><svg xmlns="http://www.w3.org/2000/svg" viewBox="0 0 1440 320"><path fill="#0099ff" fill-opacity="0.36" d="M0,96L17.1,85.3C34.3,75,69,53,103,48C137.1,43,171,53,206,64C240,75,274,85,309,112C342.9,139,377,181,411,213.3C445.7,245,480,267,514,245.3C548.6,224,583,160,617,128C651.4,96,686,96,720,117.3C754.3,139,789,181,823,192C857.1,203,891,181,926,154.7C960,128,994,96,1029,96C1062.9,96,1097,128,1131,149.3C1165.7,171,1200,181,1234,170.7C1268.6,160,1303,128,1337,122.7C1371.4,117,1406,139,1423,149.3L1440,160L1440,320L1422.9,320C1405.7,320,1371,320,1337,320C1302.9,320,1269,320,1234,320C1200,320,1166,320,1131,320C1097.1,320,1063,320,1029,320C994.3,320,960,320,926,320C891.4,320,857,320,823,320C788.6,320,754,320,720,320C685.7,320,651,320,617,320C582.9,320,549,320,514,320C480,320,446,320,411,320C377.1,320,343,320,309,320C274.3,320,240,320,206,320C171.4,320,137,320,103,320C68.6,320,34,320,17,320L0,320Z"></path></svg>