<?xml version="1.0" standalone="no"?><svg xmlns="http://www.w3.org/2000/svg" viewBox="0 0 1440 320"><path fill="#0099ff" fill-opacity="0.36" d="M0,96L17.1,85.3C34.3,75,69,53,103,48C137.1,43,171,53,206,64C240,75,274,85,309,112C342.9,139,377,181,411,213.3C445.7,245,480,267,514,245.3C548.6,224,583,160,617,128C651.4,96,686,96,720,117.3C754.3,139,789,181,823,192C857.1,203,891,181,926,154.7C960,128,994,96,1029,96C1062.9,96,1097,128,1131,149.3C1165.7,171,1200,181,1234,170.7C1268.6,160,1303,128,1337,122.7C1371.4,117,1406,139,1423,149.3L1440,160L1440,0L1422.9,0C1405.7,0,1371,0,1337,0C1302.9,0,1269,0,1234,0C1200,0,1166,0,1131,0C1097.1,0,1063,0,1029,0C994.3,0,960,0,926,0C891.4,0,857,0,823,0C788.6,0,754,0,720,0C685.7,0,651,0,617,0C582.9,0,549,0,514,0C480,0,446,0,411,0C377.1,0,343,0,309,0C274.3,0,240,0,206,0C171.4,0,137,0,103,0C68.6,0,34,0,17,0L0,0Z"></path></svg>